<?xml version="1.0" encoding="UTF-8"?>
<!DOCTYPE svg PUBLIC "-//W3C//DTD SVG 1.1//EN" "http://www.w3.org/Graphics/SVG/1.1/DTD/svg11.dtd">
<svg width="268pt" height="482pt" viewBox="0 0 268 482" version="1.1" xmlns="http://www.w3.org/2000/svg">
<path fill="#000000" stroke="#000000" stroke-width="0.09375" opacity="1.00" d=" M 112.1 8.1 C 116.7 7.9 121.3 7.8 125.8 8.1 C 132.5 18.7 137.5 30.3 143.8 41.0 C 144.3 30.1 143.7 19.1 144.1 8.1 C 148.0 7.9 152.0 7.9 155.9 8.1 C 156.1 24.4 156.1 40.6 155.9 56.9 C 151.3 57.1 146.7 57.2 142.2 56.9 C 135.5 46.3 130.5 34.7 124.2 24.0 C 123.7 34.9 124.3 45.9 123.9 56.9 C 120.0 57.1 116.0 57.1 112.1 56.9 C 111.9 40.6 111.9 24.4 112.1 8.1 Z"/>
<path fill="#000000" stroke="#000000" stroke-width="0.09375" opacity="1.00" d=" M 134.5 95.4 C 136.8 94.9 139.6 95.1 140.3 97.8 C 180.9 185.5 221.5 273.1 262.1 360.8 C 264.2 364.1 260.4 366.4 258.3 368.3 C 222.9 400.9 187.5 433.6 152.1 466.2 C 147.6 470.5 142.6 474.5 138.6 479.4 C 134.0 480.1 131.1 475.6 128.0 473.0 C 89.3 437.1 50.4 401.3 11.5 365.4 C 9.7 364.1 10.3 361.9 11.1 360.2 C 51.5 273.2 91.7 186.1 132.1 99.1 C 132.8 97.9 133.2 96.3 134.5 95.4 M 132.5 118.7 C 95.9 197.5 59.6 276.4 23.1 355.2 C 22.3 357.7 18.8 361.1 21.7 363.3 C 57.6 396.7 93.5 430.2 129.4 463.7 C 130.7 464.6 133.8 467.7 133.2 464.1 C 132.8 348.7 133.3 233.3 132.9 118.0 L 132.5 118.7 Z"/>
<path fill="#555555" stroke="#555555" stroke-width="0.09375" opacity="1.00" d=" M 132.5 118.7 L 132.9 118.0 C 133.3 233.3 132.8 348.7 133.2 464.1 C 133.8 467.7 130.7 464.6 129.4 463.7 C 93.5 430.2 57.6 396.7 21.7 363.3 C 18.8 361.1 22.3 357.7 23.1 355.2 C 59.6 276.4 95.9 197.5 132.5 118.7 Z"/>
</svg>